<svg width="44" height="44" viewBox="0 0 44 44" fill="none" xmlns="http://www.w3.org/2000/svg">
<path d="M36.6667 26.125C38.9449 26.125 40.7917 24.2782 40.7917 22C40.7917 19.7218 38.9449 17.875 36.6667 17.875C34.3886 17.875 32.5417 19.7218 32.5417 22C32.5417 24.2782 34.3886 26.125 36.6667 26.125Z" fill="white"/>
<path d="M36.6667 11.4583C38.9449 11.4583 40.7917 9.61149 40.7917 7.33331C40.7917 5.05514 38.9449 3.20831 36.6667 3.20831C34.3886 3.20831 32.5417 5.05514 32.5417 7.33331C32.5417 9.61149 34.3886 11.4583 36.6667 11.4583Z" fill="white"/>
<path d="M36.6667 40.7917C38.9449 40.7917 40.7917 38.9449 40.7917 36.6667C40.7917 34.3885 38.9449 32.5417 36.6667 32.5417C34.3886 32.5417 32.5417 34.3885 32.5417 36.6667C32.5417 38.9449 34.3886 40.7917 36.6667 40.7917Z" fill="white"/>
<path d="M7.33325 26.125C9.61143 26.125 11.4583 24.2782 11.4583 22C11.4583 19.7218 9.61143 17.875 7.33325 17.875C5.05508 17.875 3.20825 19.7218 3.20825 22C3.20825 24.2782 5.05508 26.125 7.33325 26.125Z" fill="white"/>
<path d="M34.8334 23.375C35.5851 23.375 36.2084 22.7516 36.2084 22C36.2084 21.2483 35.5851 20.625 34.8334 20.625H21.5417V12.8333C21.5417 9.93665 22.7701 8.70831 25.6667 8.70831H34.8334C35.5851 8.70831 36.2084 8.08498 36.2084 7.33331C36.2084 6.58165 35.5851 5.95831 34.8334 5.95831H25.6667C21.2301 5.95831 18.7917 8.39665 18.7917 12.8333V20.625H9.16675C8.41508 20.625 7.79175 21.2483 7.79175 22C7.79175 22.7516 8.41508 23.375 9.16675 23.375H18.7917V31.1666C18.7917 35.6033 21.2301 38.0416 25.6667 38.0416H34.8334C35.5851 38.0416 36.2084 37.4183 36.2084 36.6666C36.2084 35.915 35.5851 35.2916 34.8334 35.2916H25.6667C22.7701 35.2916 21.5417 34.0633 21.5417 31.1666V23.375H34.8334Z" fill="white"/>
</svg>
