<svg width="58" height="48" viewBox="0 0 58 48" fill="none" xmlns="http://www.w3.org/2000/svg">
<path d="M41.6239 11.4632L41.6421 11.4624C43.8668 11.3595 46.1002 11.3857 48.3157 11.4117C48.8749 11.4183 49.4331 11.4248 49.9896 11.4293C49.9897 11.4293 49.9898 11.4293 49.9899 11.4293L49.9859 11.9293C52.2639 11.9462 53.1099 12.7975 53.1099 15.1019L41.6239 11.4632ZM41.6239 11.4632L41.6059 11.4653C41.1544 11.5192 40.6977 11.4298 40.3003 11.2095C39.9028 10.9891 39.5847 10.6493 39.3912 10.2381L39.3809 10.2161L39.3684 10.1951C38.8799 9.37446 38.3519 8.58137 37.8243 7.80086C37.7352 7.66906 37.6461 7.53771 37.5573 7.40664C37.1218 6.76404 36.6909 6.12831 36.2788 5.48022C36.0772 5.09966 35.7699 4.78583 35.3939 4.57588C35.0156 4.36457 34.5839 4.26774 34.1516 4.29737C30.9472 4.34845 27.7421 4.34845 24.5363 4.29738M41.6239 11.4632L24.5139 4.79708M8.84414 11.4262C7.58283 11.4321 6.58555 11.6369 5.92724 12.3046C5.27068 12.9706 5.07138 13.9759 5.06815 15.2494L5.06815 15.2503C5.0625 23.3746 5.0625 31.4996 5.06815 39.6245C5.06818 40.9071 5.24776 41.9137 5.90054 42.5709C6.55435 43.2292 7.55622 43.4099 8.82813 43.4109H8.82835C15.6172 43.4137 22.4054 43.4134 29.1928 43.4099H29.2332H29.2738H29.3145H29.3551H29.3957H29.4364H29.477H29.5177H29.5583H29.5989H29.6396H29.6802H29.7208H29.7615H29.8021H29.8427H29.8834H29.924H29.9647H30.0053H30.0459H30.0866H30.1272H30.1678H30.2085H30.2491H30.2898H30.3304H30.371H30.4117H30.4523H30.4929H30.5336H30.5742H30.6148H30.6555H30.6961H30.7368H30.7774H30.818H30.8587H30.8993H30.9399H30.9806H31.0212H31.0619H31.1025H31.1431H31.1838H31.2244H31.265H31.3057H31.3463H31.3869H31.4276H31.4682H31.5089H31.5495H31.5901H31.6308H31.6714H31.712H31.7527H31.7933H31.834H31.8746H31.9152H31.9559H31.9965H32.0371H32.0778H32.1184H32.159H32.1997H32.2403H32.281H32.3216H32.3622H32.4029H32.4435H32.4841H32.5248H32.5654H32.6061H32.6467H32.6873H32.728H32.7686H32.8092H32.8499H32.8905H32.9311H32.9718H33.0124H33.0531H33.0937H33.1343H33.175H33.2156H33.2562H33.2969H33.3375H33.3782H33.4188H33.4594H33.5001H33.5407H33.5813H33.622H33.6626H33.7032H33.7439H33.7845H33.8252H33.8658H33.9064H33.9471H33.9877H34.0283H34.069H34.1096H34.1502H34.1909H34.2315H34.2722H34.3128H34.3534H34.3941H34.4347H34.4753H34.516H34.5566H34.5973H34.6379H34.6785H34.7192H34.7598H34.8004H34.8411H34.8817H34.9223H34.963H35.0036H35.0443H35.0849H35.1255H35.1662H35.2068H35.2474H35.2881H35.3287H35.3694H35.41H35.4506H35.4913H35.5319H35.5725H35.6132H35.6538H35.6944H35.7351H35.7757H35.8164H35.857H35.8976H35.9383H35.9789H36.0195H36.0602H36.1008H36.1414H36.1821H36.2227H36.2634H36.304H36.3446H36.3853H36.4259H36.4665H36.5072H36.5478H36.5885H36.6291H36.6697H36.7104H36.751H36.7916H36.8323H36.8729H36.9135H36.9542H36.9948H37.0355H37.0761H37.1167H37.1574H37.198H37.2386H37.2793H37.3199H37.3605H37.4012H37.4418H37.4825H37.5231H37.5637H37.6044H37.645H37.6856H37.7263H37.7669H37.8076H37.8482H37.8888H37.9295H37.9701H38.0107H38.0514H38.092H38.1326H38.1733H38.2139H38.2546H38.2952H38.3358H38.3765H38.4171H38.4577H38.4984H38.539H38.5797H38.6203H38.6609H38.7016H38.7422H38.7828H38.8235H38.8641H38.9047H38.9454H38.986H39.0267H39.0673H39.1079H39.1486H39.1892H39.2298H39.2705H39.3111H39.3517H39.3924H39.433H39.4737H39.5143H39.5549H39.5956H39.6362H39.6768H39.7175H39.7581H39.7988H39.8394H39.88H39.9207H39.9613H40.0019H40.0426H40.0832H40.1238H40.1645H40.2051H40.2458H40.2864H40.327H40.3677H40.4083H40.4489H40.4896H40.5302H40.5709H40.6115H40.6521H40.6928H40.7334H40.774H40.8147H40.8553H40.8959H40.9366H40.9772H41.0179H41.0585H41.0991H41.1398H41.1804H41.221H41.2617H41.3023H41.3429H41.3836H41.4242H41.4649H41.5055H41.5461H41.5868H41.6274H41.668H41.7087H41.7493H41.79H41.8306H41.8712H41.9119H41.9525H41.9931H42.0338H42.0744H42.115H42.1557H42.1963H42.237H42.2776H42.3182H42.3589H42.3995H42.4401H42.4808H42.5214H42.562H42.6027H42.6433H42.684H42.7246H42.7652H42.8059H42.8465H42.8871H42.9278H42.9684H43.0091H43.0497H43.0903H43.131H43.1716H43.2122H43.2529H43.2935H43.3341H43.3748H43.4154H43.4561H43.4967H43.5373H43.578H43.6186H43.6592H43.6999H43.7405H43.7812H43.8218H43.8624H43.9031H43.9437H43.9843H44.025H44.0656H44.1062H44.1469H44.1875H44.2282H44.2688H44.3094H44.3501H44.3907H44.4313H44.472H44.5126H44.5532H44.5939H44.6345H44.6752H44.7158H44.7564H44.7971H44.8377H44.8783H44.919H44.9596H45.0003H45.0409H45.0815H45.1222H45.1628H45.2034H45.2441H45.2847H45.3253H45.366H45.4066H45.4473H45.4879H45.5285H45.5692H45.6098H45.6504H45.6911H45.7317H45.7724H45.813H45.8536H45.8943H45.9349H45.9755H46.0162H46.0568H46.0974H46.1381H46.1787H46.2194H46.26H46.3006H46.3413H46.3819H46.4225H46.4632H46.5038H46.5445H46.5851H46.6257H46.6664H46.707H46.7476H46.7883H46.8289H46.8695H46.9102H46.9508H46.9915H47.0321H47.0727H47.1134H47.154H47.1946H47.2353H47.2759H47.3166H47.3572H47.3978H47.4385H47.4791H47.5197H47.5604H47.601H47.6416H47.6823H47.7229H47.7636H47.8042H47.8448H47.8855H47.9261H47.9667H48.0074H48.048H48.0886H48.1293H48.1699H48.2106H48.2512H48.2918H48.3325H48.3731H48.4137H48.4544H48.495H48.5357H48.5763H48.6169H48.6576H48.6982H48.7388H48.7795H48.8201H48.8607H48.9014H48.942H48.9827H49.0233H49.0639H49.1046H49.1452H49.1858H49.2265H49.2671H49.3078H49.3484H49.389H49.4297H49.4703H49.5109H49.5516H49.5922H49.6329H49.6735H49.7141H49.7548H49.7954H49.836H49.8767H49.9173H49.9579H49.9986C51.1893 43.4099 52.1431 43.21 52.7779 42.5692C53.4114 41.9298 53.6088 40.9707 53.6099 39.7724C53.6183 31.5486 53.6183 23.3252 53.6099 15.1014L22.8398 5.72656M8.84414 11.4262L8.8465 11.9262L8.84398 11.4262C8.84403 11.4262 8.84409 11.4262 8.84414 11.4262ZM8.84414 11.4262C9.49906 11.4229 10.1568 11.4156 10.8163 11.4083C12.8833 11.3853 14.9682 11.3621 17.042 11.4614L17.0589 11.4622L17.0758 11.4641C17.5276 11.5167 17.9845 11.4259 18.382 11.2048C18.7795 10.9836 19.0974 10.6431 19.2909 10.2315L19.3015 10.2088L19.3144 10.1872C19.8048 9.3687 20.3334 8.57613 20.8612 7.79574C20.9465 7.66962 21.0317 7.54389 21.1167 7.41842C21.5563 6.77001 21.9911 6.12852 22.407 5.47536M22.407 5.47536C22.4034 5.48218 22.3998 5.48903 22.3962 5.49589L22.8398 5.72656M22.407 5.47536C22.4107 5.46965 22.4143 5.46394 22.4179 5.45823L22.8398 5.72656M22.407 5.47536C22.6095 5.09556 22.9176 4.78191 23.2943 4.5727C23.6732 4.36231 24.1047 4.26702 24.5363 4.29738M22.8398 5.72656C22.9969 5.42448 23.2394 5.17512 23.5371 5.00983C23.8347 4.84454 24.1745 4.77072 24.5139 4.79708M24.5363 4.29738C24.5315 4.2973 24.5267 4.29722 24.5219 4.29715L24.5139 4.79708M24.5363 4.29738C24.5418 4.29776 24.5472 4.29816 24.5526 4.29858L24.5139 4.79708M29.356 47.157H29.3553C27.5204 47.157 25.6855 47.1578 23.8507 47.1586C18.9475 47.1607 14.0448 47.1628 9.14178 47.1497L9.12098 47.1497L9.10025 47.1513C7.17751 47.3064 5.26586 46.7403 3.73748 45.5635C2.99704 44.9769 2.39715 44.232 1.98172 43.3835C1.56607 42.5346 1.34572 41.6037 1.3367 40.6586C1.335 40.0139 1.33326 39.3692 1.33152 38.7245C1.30944 30.5497 1.28738 22.3787 1.34715 14.2079C1.35436 13.3539 1.53012 12.5096 1.86422 11.7237C2.19836 10.9377 2.68429 10.2253 3.29426 9.62757C3.90415 9.0299 4.62617 8.5588 5.41889 8.24059C6.21161 7.92239 7.05918 7.76349 7.91304 7.77359L7.91304 7.77367L7.92191 7.77362C8.1822 7.77208 8.44241 7.77043 8.70254 7.76878C10.7638 7.75568 12.8203 7.74262 14.8732 7.787C15.3523 7.83584 15.8355 7.74356 16.2632 7.5209C16.6934 7.29692 17.0479 6.95114 17.2827 6.52714C17.8243 5.65674 18.3946 4.80179 18.972 3.94202C19.0336 3.85027 19.0953 3.75846 19.1571 3.66657C19.6752 2.89563 20.1971 2.11904 20.7008 1.33086L20.7091 1.31794L20.7165 1.30453C20.8496 1.06506 21.048 0.868199 21.2887 0.736567C21.5292 0.605011 21.8021 0.54429 22.0757 0.561435L22.0901 0.562335L22.1045 0.562407C26.9116 0.586387 31.7191 0.586387 36.527 0.562407L36.5391 0.562347L36.5513 0.561695C36.8479 0.545774 37.1429 0.615233 37.4016 0.761813C37.6602 0.908329 37.8715 1.12591 38.0103 1.38866L38.0196 1.40625L38.0302 1.42303C38.5465 2.23626 39.0827 3.03594 39.6148 3.82949L39.7134 3.97659C40.2758 4.81546 40.8323 5.64867 41.3631 6.49629C41.5913 6.92207 41.9393 7.27202 42.3644 7.5025C42.7902 7.73335 43.2741 7.83359 43.7557 7.7922C45.6957 7.74579 47.6352 7.75853 49.5836 7.77132C49.9569 7.77378 50.3305 7.77623 50.7045 7.77827V7.77846L50.7181 7.77816C52.4196 7.74094 54.0667 8.37852 55.2998 9.55164C56.5319 10.7239 57.2505 12.3355 57.2991 14.0353C57.4047 22.9455 57.3879 31.8584 57.3128 40.7731C57.2792 42.3052 56.6966 43.7742 55.671 44.9129C54.6453 46.0518 53.2446 46.7847 51.7242 46.9778C50.0287 47.176 48.3202 47.2387 46.6149 47.1652L46.604 47.1647L46.5931 47.1647C40.8496 47.1668 35.1038 47.164 29.356 47.157Z" fill="white" stroke="#2077A5"/>
<path d="M36.9848 26.1937C36.9753 24.682 36.5183 23.2069 35.6714 21.9546M36.9848 26.1937C36.9848 26.1939 36.9848 26.1941 36.9848 26.1943L36.4848 26.1974L36.9848 26.1932C36.9848 26.1933 36.9848 26.1935 36.9848 26.1937ZM36.9848 26.1937L35.6714 21.9546M35.6714 21.9546C34.8244 20.7021 33.6255 19.7286 32.2258 19.1569C30.8261 18.5852 29.2884 18.4407 27.8067 18.742C26.325 19.0433 24.9658 19.7767 23.9006 20.8497C22.8353 21.9227 22.1118 23.2873 21.8212 24.7711C21.5306 26.2549 21.6861 27.7915 22.2679 29.187C22.8497 30.5826 23.8319 31.7744 25.0905 32.6123C26.3488 33.4501 27.8271 33.8966 29.3389 33.8952L35.6714 21.9546ZM29.3371 37.6128C27.0853 37.6138 24.8838 36.9462 23.0118 35.6946C21.1396 34.4429 19.6814 32.6637 18.8218 30.5822C17.9622 28.5006 17.7401 26.2106 18.1836 24.0026C18.6271 21.7947 19.7163 19.768 21.313 18.1798C22.9097 16.5917 24.942 15.5137 27.1523 15.082C29.3627 14.6503 31.6513 14.8845 33.7282 15.7552C35.8051 16.6259 37.5767 18.094 38.8184 19.9729C40.0599 21.8515 40.7156 24.056 40.7026 26.3076C40.6777 29.3087 39.4703 32.179 37.3424 34.2955C35.2146 36.4119 32.3381 37.604 29.3371 37.6128Z" fill="white" stroke="#2077A5"/>
</svg>
