<?xml version="1.0" encoding="utf-8"?>
<!-- Generator: Adobe Illustrator 24.2.0, SVG Export Plug-In . SVG Version: 6.00 Build 0)  -->
<svg version="1.1" id="Layer_1" xmlns="http://www.w3.org/2000/svg" xmlns:xlink="http://www.w3.org/1999/xlink" x="0px" y="0px"
	 viewBox="0 0 50 50" style="enable-background:new 0 0 50 50;" xml:space="preserve">
<style type="text/css">
	.st0{clip-path:url(#SVGID_2_);}
	.st1{fill:#FFFFFF;stroke:#000000;stroke-width:0.7;}
</style>
<g>
	<defs>
		<rect id="SVGID_1_" x="1.5" y="0.5" width="50" height="49"/>
	</defs>
	<clipPath id="SVGID_2_">
		<use xlink:href="#SVGID_1_"  style="overflow:visible;"/>
	</clipPath>
	<g class="st0">
		<path class="st1" d="M37.5,1.4L37.5,1.4c1,0.5,1.8,1.2,2.4,2.1c0.6,0.9,0.9,2,0.9,3.1v0v10.2v0.3h0.3c2.1,0,4.2,0.8,5.7,2.3
			c1.5,1.5,2.3,3.5,2.3,5.5s-0.8,4.1-2.3,5.5c-1.5,1.5-3.5,2.3-5.7,2.3h-0.3v0.3v10.2c0,1.1-0.3,2.1-0.9,3.1
			c-0.6,0.9-1.4,1.7-2.4,2.1c-1,0.5-2.1,0.7-3.2,0.6c-1.1-0.1-2.1-0.5-3-1.1L13.5,34.9l-0.1-0.1h-0.1H9.8c-1.6,0-3.1-0.6-4.2-1.7
			s-1.7-2.6-1.7-4.1v-8.2c0-1.5,0.6-3,1.7-4.1c1.1-1.1,2.6-1.7,4.2-1.7h3.5h0.1l0.1-0.1L31.3,2l0,0c0.9-0.6,1.9-1,3-1.1
			C35.4,0.7,36.5,0.9,37.5,1.4z M12.2,18.9v-0.3h-0.3H9.8c-0.6,0-1.3,0.2-1.7,0.7c-0.5,0.4-0.7,1-0.7,1.7v8.2c0,0.6,0.3,1.2,0.7,1.7
			c0.5,0.4,1.1,0.7,1.7,0.7h2.1h0.3v-0.3V18.9z M15.8,32.1v0.2l0.1,0.1l17.5,12.9c0.4,0.3,0.8,0.4,1.2,0.5c0.4,0,0.9,0,1.3-0.2
			c0.4-0.2,0.7-0.5,1-0.9c0.2-0.4,0.4-0.8,0.4-1.2V6.6c0-0.4-0.1-0.9-0.4-1.2l-0.3,0.2l0.3-0.2c-0.2-0.4-0.6-0.7-1-0.9
			c-0.4-0.2-0.8-0.3-1.3-0.2c-0.4,0-0.9,0.2-1.2,0.5L15.9,17.6l-0.1,0.1v0.2V32.1z M40.8,29.1v0.3h0.3c1.2,0,2.3-0.5,3.2-1.3
			c0.8-0.8,1.3-1.9,1.3-3.1c0-1.2-0.5-2.3-1.3-3.1c-0.8-0.8-2-1.3-3.2-1.3h-0.3v0.3V29.1z"/>
	</g>
</g>
</svg>
