<svg width="56" height="57" viewBox="0 0 56 57" fill="none" xmlns="http://www.w3.org/2000/svg">
<path d="M42 17.2968C41.86 17.2735 41.6967 17.2735 41.5567 17.2968C38.3367 17.1802 35.77 14.5435 35.77 11.2768C35.77 7.94017 38.4533 5.25684 41.79 5.25684C45.1267 5.25684 47.81 7.96351 47.81 11.2768C47.7867 14.5435 45.22 17.1802 42 17.2968Z" stroke="white" stroke-width="3" stroke-linecap="round" stroke-linejoin="round"/>
<path d="M39.5967 34.2839C42.7934 34.8205 46.3167 34.2605 48.7901 32.6039C52.0801 30.4105 52.0801 26.8172 48.7901 24.6239C46.2934 22.9672 42.7234 22.4072 39.5267 22.9672" stroke="white" stroke-width="3" stroke-linecap="round" stroke-linejoin="round"/>
<path d="M13.93 17.2968C14.07 17.2735 14.2333 17.2735 14.3733 17.2968C17.5933 17.1802 20.16 14.5435 20.16 11.2768C20.16 7.94017 17.4767 5.25684 14.14 5.25684C10.8033 5.25684 8.12 7.96351 8.12 11.2768C8.14333 14.5435 10.71 17.1802 13.93 17.2968Z" stroke="white" stroke-width="3" stroke-linecap="round" stroke-linejoin="round"/>
<path d="M16.3333 34.2839C13.1366 34.8205 9.61332 34.2605 7.13999 32.6039C3.84999 30.4105 3.84999 26.8172 7.13999 24.6239C9.63665 22.9672 13.2066 22.4072 16.4033 22.9672" stroke="white" stroke-width="3" stroke-linecap="round" stroke-linejoin="round"/>
<path d="M28 34.7265C27.86 34.7032 27.6967 34.7032 27.5567 34.7265C24.3367 34.6099 21.77 31.9732 21.77 28.7065C21.77 25.3699 24.4533 22.6865 27.79 22.6865C31.1267 22.6865 33.81 25.3932 33.81 28.7065C33.7867 31.9732 31.22 34.6332 28 34.7265Z" stroke="white" stroke-width="2" stroke-linecap="round" stroke-linejoin="round"/>
<path d="M34.7901 42.0767C31.0801 39.6033 24.9434 39.6033 21.2101 42.0767C17.9201 44.27 17.9201 47.8633 21.2101 50.0567C24.9434 52.5533 31.0567 52.5533 34.7901 50.0567" stroke="white" stroke-width="1.5" stroke-linecap="round" stroke-linejoin="round"/>
</svg>
