<svg width="21" height="21" viewBox="0 0 21 21" fill="none" xmlns="http://www.w3.org/2000/svg">
<path d="M20.75 19.69L15.086 14.026C16.4471 12.3919 17.1258 10.2961 16.981 8.17438C16.8362 6.05268 15.8789 4.0685 14.3084 2.63459C12.7379 1.20068 10.6751 0.427459 8.54897 0.475767C6.42288 0.524076 4.39726 1.3902 2.8935 2.89396C1.38975 4.39772 0.523622 6.42333 0.475313 8.54942C0.427005 10.6755 1.20023 12.7384 2.63414 14.3089C4.06804 15.8794 6.05223 16.8366 8.17393 16.9815C10.2956 17.1263 12.3915 16.4475 14.0255 15.0865L19.6895 20.7505L20.75 19.69ZM2 8.75045C2 7.41543 2.39588 6.11039 3.13758 5.00035C3.87928 3.89032 4.93348 3.02516 6.16689 2.51427C7.40029 2.00337 8.75749 1.8697 10.0669 2.13015C11.3762 2.3906 12.579 3.03348 13.523 3.97748C14.467 4.92149 15.1099 6.12422 15.3703 7.43359C15.6308 8.74296 15.4971 10.1002 14.9862 11.3336C14.4753 12.567 13.6101 13.6212 12.5001 14.3629C11.3901 15.1046 10.085 15.5005 8.75 15.5005C6.9604 15.4985 5.24466 14.7867 3.97922 13.5212C2.71378 12.2558 2.00198 10.5401 2 8.75045Z" fill="black"/>
</svg>
